<svg xmlns="http://www.w3.org/2000/svg" version="1.1" xmlns:xlink="http://www.w3.org/1999/xlink" xmlns:svgjs="http://svgjs.dev/svgjs" width="1500" height="1500" viewBox="0 0 1500 1500"><rect width="1500" height="1500" fill="#ffffff"></rect><g transform="matrix(0.6666666666666666,0,0,0.6666666666666666,249.39393939393938,516.5221974335308)"><svg viewBox="0 0 396 185" data-background-color="#193946" preserveAspectRatio="xMidYMid meet" height="700" width="1500" xmlns="http://www.w3.org/2000/svg" xmlns:xlink="http://www.w3.org/1999/xlink"><g id="tight-bounds" transform="matrix(1,0,0,1,0.2400000000000091,0.05727173170747335)"><svg viewBox="0 0 395.52 184.88545653658505" height="184.88545653658505" width="395.52"><g><svg viewBox="0 0 395.52 184.88545653658505" height="184.88545653658505" width="395.52"><g transform="matrix(1,0,0,1,0,134.00035462601878)"><svg viewBox="0 0 395.52 50.88510191056628" height="50.88510191056628" width="395.52"><g id="textblocktransform"><svg viewBox="0 0 395.52 50.88510191056628" height="50.88510191056628" width="395.52" id="textblock"><g><rect width="115.65362583820615" height="2.475017746694331" y="41.16709035536304" fill="#000000" data-fill-palette-color="tertiary"></rect><rect width="115.65362583820615" height="2.475017746694331" y="41.16709035536304" x="279.86637416179383" fill="#000000" data-fill-palette-color="tertiary"></rect></g><g><svg viewBox="0 0 395.52 27.444992497916093" height="27.444992497916093" width="395.52"><g transform="matrix(1,0,0,1,0,0)"><svg width="395.52" viewBox="2.1 -36.45999999577501 539.79 37.45999999577501" height="27.444992497916093" data-palette-color="#efbc9d"><path d="M21.4 0.25L21.4 0.25Q21.1 0.25 20.8 0.13 20.5 0 20.35-0.25L20.35-0.25 9.1-25.7 8.95-25.7 9.05-5.85Q9.1-4.9 9.22-4.03 9.35-3.15 10-2.58 10.65-2 12.2-2L12.2-2Q12.75-2 13.1-1.9 13.45-1.8 13.5-0.95L13.5-0.95Q13.5-0.55 13.28-0.2 13.05 0.15 12.6 0.15L12.6 0.15Q11.55 0.1 10.9 0.08 10.25 0.05 9.65 0.03 9.05 0 8.05 0L8.05 0Q6.55 0 5.63 0.03 4.7 0.05 3.1 0.15L3.1 0.15Q2.6 0.15 2.4-0.2 2.2-0.55 2.2-0.95L2.2-0.95Q2.25-1.8 2.6-1.9 2.95-2 3.45-2L3.45-2Q5.05-2 5.68-2.58 6.3-3.15 6.45-4.03 6.6-4.9 6.6-5.85L6.6-5.85 6.7-25.7Q6.7-27.3 6.35-28.08 6-28.85 5.25-29.18 4.5-29.5 3.35-29.7L3.35-29.7Q2.65-29.85 2.38-29.95 2.1-30.05 2.1-30.85L2.1-30.85Q2.1-31.7 2.7-31.78 3.3-31.85 4.1-31.85L4.1-31.85Q6.55-31.85 8.43-31.45 10.3-31.05 11.7-29.93 13.1-28.8 14-26.55L14-26.55 22.6-7.25 22.75-7.25 32.6-31.55 35.45-31.55Q36.95-31.55 38.38-31.6 39.8-31.65 41.4-31.7L41.4-31.7Q41.9-31.7 42.1-31.35 42.3-31 42.3-30.6L42.3-30.6Q42.25-29.75 41.9-29.65 41.55-29.55 41.05-29.55L41.05-29.55Q39.5-29.55 38.83-28.98 38.15-28.4 38-27.53 37.85-26.65 37.8-25.7L37.8-25.7 37.8-5.85Q37.85-4.9 38-4.03 38.15-3.15 38.83-2.58 39.5-2 41.05-2L41.05-2Q41.55-2 41.9-1.9 42.25-1.8 42.3-0.95L42.3-0.95Q42.3-0.55 42.1-0.2 41.9 0.15 41.4 0.15L41.4 0.15Q39.8 0.05 38.35 0.03 36.9 0 35.4 0L35.4 0Q32.5 0 29.25 0.15L29.25 0.15Q28.75 0.15 28.55-0.2 28.35-0.55 28.35-0.95L28.35-0.95Q28.4-1.8 28.75-1.9 29.1-2 29.6-2L29.6-2Q31.2-2 31.85-2.58 32.5-3.15 32.68-4.03 32.85-4.9 32.85-5.85L32.85-5.85 32.85-25.7 32.7-25.7 22.4-0.25Q22.3 0 22 0.13 21.7 0.25 21.4 0.25ZM56.15 0.6L56.15 0.6Q52.75 0.6 50.75-1.45 48.75-3.5 48.75-6.85L48.75-6.85 48.75-16.1Q48.75-17 48.67-17.78 48.6-18.55 48.1-19.03 47.6-19.5 46.2-19.5L46.2-19.5Q45.75-19.5 45.37-19.63 45-19.75 45-20.5L45-20.5Q45-21.25 45.8-21.4L45.8-21.4Q48.1-21.75 49.32-22.1 50.55-22.45 51.2-22.7 51.85-22.95 52.35-23L52.35-23Q52.75-23.05 53.02-22.85 53.3-22.65 53.3-22.05L53.3-22.05 53.3-6.9Q53.3-5.25 54.02-4.2 54.75-3.15 55.85-2.65 56.95-2.15 58.1-2.15L58.1-2.15Q59.85-2.15 61.15-2.78 62.45-3.4 63.25-4.23 64.05-5.05 64.3-5.6L64.3-5.6 64.3-16.1Q64.3-17 64.22-17.78 64.15-18.55 63.65-19.03 63.15-19.5 61.75-19.5L61.75-19.5Q61.3-19.5 60.92-19.63 60.55-19.75 60.55-20.5L60.55-20.5Q60.55-21.25 61.35-21.4L61.35-21.4Q63.65-21.75 64.87-22.1 66.1-22.45 66.75-22.7 67.4-22.95 67.9-23L67.9-23Q68.3-23.05 68.57-22.85 68.85-22.65 68.85-22.05L68.85-22.05 68.85-4.75Q68.85-1.8 72.8-1.8L72.8-1.8Q73.35-1.8 73.5-1.5 73.65-1.2 73.65-0.85L73.65-0.85Q73.65-0.15 72.8 0L72.8 0 64.75 0.55Q64.4 0.55 64.35 0.25 64.3-0.05 64.3-0.45L64.3-0.45 64.3-3.25 64.2-3.25Q63.25-2.35 62.17-1.45 61.1-0.55 59.67 0.03 58.25 0.6 56.15 0.6ZM75.9 0.15L75.9 0.15Q75.55 0.15 75.32-0.18 75.1-0.5 75.1-0.85L75.1-0.85Q75.15-1.6 75.47-1.68 75.8-1.75 76.25-1.75L76.25-1.75Q77.65-1.75 78.17-2.23 78.7-2.7 78.77-3.5 78.85-4.3 78.85-5.15L78.85-5.15 78.85-29.55Q78.85-30.45 78.77-31.23 78.7-32 78.2-32.48 77.7-32.95 76.3-32.95L76.3-32.95Q75.85-32.95 75.47-33.08 75.1-33.2 75.1-33.95L75.1-33.95Q75.1-34.7 75.9-34.85L75.9-34.85Q78.2-35.2 79.42-35.55 80.65-35.9 81.3-36.15 81.95-36.4 82.45-36.45L82.45-36.45Q82.85-36.5 83.12-36.3 83.4-36.1 83.4-35.5L83.4-35.5 83.4-5.15Q83.4-4.3 83.47-3.5 83.55-2.7 84.07-2.23 84.6-1.75 86-1.75L86-1.75Q86.45-1.75 86.77-1.68 87.1-1.6 87.15-0.85L87.15-0.85Q87.15-0.5 86.95-0.18 86.75 0.15 86.35 0.15L86.35 0.15Q84.9 0.05 83.67 0.03 82.45 0 81.1 0L81.1 0Q79.75 0 78.55 0.03 77.35 0.05 75.9 0.15ZM98.79 0.85L98.79 0.85Q97.29 0.85 95.94 0.1 94.59-0.65 93.72-2.2 92.84-3.75 92.84-6.1L92.84-6.1 92.84-20.8 89.94-20.7Q89.59-20.7 89.42-20.98 89.24-21.25 89.24-21.6L89.24-21.6Q89.24-22.6 89.94-22.75L89.94-22.75Q91.79-23.1 92.74-23.93 93.69-24.75 94.22-25.9 94.74-27.05 95.19-28.4L95.19-28.4Q95.34-28.8 95.64-28.93 95.94-29.05 96.29-29.05L96.29-29.05Q96.59-29.05 96.97-28.9 97.34-28.75 97.34-28.35L97.34-28.35 96.99-22.65 102.84-23Q103.29-23.05 103.44-22.75 103.59-22.45 103.59-22.05L103.59-22.05Q103.59-21.55 103.42-21.05 103.24-20.55 102.99-20.55L102.99-20.55 97.39-20.7 97.39-5.5Q97.39-4.05 98.02-2.85 98.64-1.65 100.29-1.65L100.29-1.65Q100.84-1.65 101.54-1.75 102.24-1.85 103.04-2.2L103.04-2.2Q103.24-2.3 103.44-2.38 103.64-2.45 103.84-2.45L103.84-2.45Q104.24-2.45 104.44-2.13 104.64-1.8 104.79-1.45L104.79-1.45Q104.94-1 104.54-0.75L104.54-0.75Q102.99 0.25 101.69 0.55 100.39 0.85 98.79 0.85ZM109.39 0.15L109.39 0.15Q109.04 0.15 108.82-0.18 108.59-0.5 108.59-0.85L108.59-0.85Q108.69-1.6 108.99-1.68 109.29-1.75 109.79-1.75L109.79-1.75Q111.19-1.75 111.69-2.23 112.19-2.7 112.27-3.5 112.34-4.3 112.34-5.15L112.34-5.15 112.34-16.6Q112.34-17.5 112.27-18.28 112.19-19.05 111.69-19.53 111.19-20 109.79-20L109.79-20Q109.34-20 108.97-20.13 108.59-20.25 108.59-21L108.59-21Q108.59-21.75 109.39-21.9L109.39-21.9Q111.69-22.25 112.92-22.6 114.14-22.95 114.79-23.2 115.44-23.45 115.94-23.5L115.94-23.5Q116.34-23.55 116.62-23.35 116.89-23.15 116.89-22.55L116.89-22.55 116.89-5.15Q116.89-4.3 116.97-3.5 117.04-2.7 117.57-2.23 118.09-1.75 119.49-1.75L119.49-1.75Q119.94-1.75 120.27-1.68 120.59-1.6 120.64-0.85L120.64-0.85Q120.64-0.5 120.44-0.18 120.24 0.15 119.84 0.15L119.84 0.15Q118.39 0.05 117.17 0.03 115.94 0 114.59 0L114.59 0Q113.24 0 112.04 0.03 110.84 0.05 109.39 0.15ZM114.34-29.05L114.34-29.05Q112.94-29.05 111.99-29.93 111.04-30.8 111.04-32.1L111.04-32.1Q111.04-33.25 112.19-34.15 113.34-35.05 114.79-35.05L114.79-35.05Q116.04-35.05 116.84-34.18 117.64-33.3 117.64-31.95L117.64-31.95Q117.64-30.75 116.69-29.9 115.74-29.05 114.34-29.05ZM141.84 0.15L141.84 0.15Q141.34 0.15 141.14-0.2 140.94-0.55 140.94-0.95L140.94-0.95Q140.99-1.8 141.34-1.9 141.69-2 142.19-2L142.19-2Q143.79-2 144.44-2.58 145.09-3.15 145.26-4.03 145.44-4.9 145.44-5.85L145.44-5.85 145.44-29.7 141.99-29.7Q140.29-29.65 139.34-28.98 138.39-28.3 137.94-26.88 137.49-25.45 137.14-23.2L137.14-23.2Q137.09-22.75 136.51-22.53 135.94-22.3 135.39-22.3L135.39-22.3Q135.04-22.3 134.61-22.55 134.19-22.8 134.19-23.3L134.19-23.3 134.34-30.35Q134.34-31.05 134.74-31.3 135.14-31.55 135.69-31.55L135.69-31.55 160.14-31.55Q160.69-31.55 161.06-31.3 161.44-31.05 161.44-30.35L161.44-30.35 161.64-23.3Q161.64-22.8 161.21-22.55 160.79-22.3 160.39-22.3L160.39-22.3Q159.89-22.3 159.34-22.53 158.79-22.75 158.69-23.2L158.69-23.2Q158.34-25.45 157.86-26.88 157.39-28.3 156.46-28.98 155.54-29.65 153.79-29.7L153.79-29.7 150.39-29.7 150.39-5.85Q150.44-4.9 150.59-4.03 150.74-3.15 151.41-2.58 152.09-2 153.64-2L153.64-2Q154.14-2 154.49-1.9 154.84-1.8 154.89-0.95L154.89-0.95Q154.89-0.55 154.69-0.2 154.49 0.15 153.99 0.15L153.99 0.15Q152.39 0.05 150.96 0.03 149.54 0 148.09 0L148.09 0Q145.09 0 141.84 0.15ZM174.43 0.6L174.43 0.6Q170.58 0.6 167.96-1.05 165.33-2.7 164.03-5.45 162.73-8.2 162.73-11.45L162.73-11.45Q162.73-13.65 163.51-15.73 164.28-17.8 165.73-19.53 167.18-21.25 169.23-22.25 171.28-23.25 173.88-23.25L173.88-23.25Q178.48-23.25 180.81-20.88 183.13-18.5 183.48-14.85L183.48-14.85Q183.48-13.1 182.51-12.55 181.53-12 179.98-12L179.98-12 167.83-12Q167.83-9.1 168.63-6.83 169.43-4.55 171.16-3.23 172.88-1.9 175.73-1.9L175.73-1.9Q177.83-1.9 179.33-2.8 180.83-3.7 182.23-5.95L182.23-5.95Q182.63-6.45 183.33-6L183.33-6Q183.73-5.8 183.83-5.38 183.93-4.95 183.73-4.65L183.73-4.65Q182.18-2.2 179.83-0.8 177.48 0.6 174.43 0.6ZM167.83-13.9L167.83-13.9 175.98-13.9Q177.18-13.9 177.91-14.38 178.63-14.85 178.68-16L178.68-16Q178.68-18.15 177.51-19.83 176.33-21.5 173.88-21.5L173.88-21.5Q171.38-21.5 169.71-19.5 168.03-17.5 167.83-13.9ZM198.73 0.6L198.73 0.6Q193.58 0.6 190.71-2.68 187.83-5.95 187.83-11.35L187.83-11.35Q187.98-14.8 189.56-17.45 191.13-20.1 193.76-21.63 196.38-23.15 199.58-23.25L199.58-23.25Q201.33-23.25 203.16-22.83 204.98-22.4 206.21-21.28 207.43-20.15 207.43-18.05L207.43-18.05Q207.43-16.6 206.53-15.38 205.63-14.15 204.03-14.15L204.03-14.15Q202.93-14.15 202.33-14.7 201.73-15.25 201.73-15.5L201.73-15.5Q201.73-15.6 202.16-15.93 202.58-16.25 202.98-16.82 203.38-17.4 203.38-18.25L203.38-18.25Q203.38-19.85 202.23-20.6 201.08-21.35 199.63-21.4L199.63-21.4Q197.43-21.4 196.11-20.5 194.78-19.6 194.08-18.13 193.38-16.65 193.16-14.9 192.93-13.15 192.93-11.5L192.93-11.5Q192.93-8.75 193.78-6.58 194.63-4.4 196.18-3.15 197.73-1.9 199.88-1.9L199.88-1.9Q202.08-1.9 203.58-2.85 205.08-3.8 206.33-5.65L206.33-5.65Q206.68-6.15 207.38-5.75L207.38-5.75Q207.73-5.55 207.88-5.2 208.03-4.85 207.78-4.5L207.78-4.5Q206.13-2.15 203.68-0.78 201.23 0.6 198.73 0.6ZM211.48 0.15L211.48 0.15Q211.08 0.15 210.88-0.18 210.68-0.5 210.68-0.85L210.68-0.85Q210.73-1.6 211.05-1.68 211.38-1.75 211.83-1.75L211.83-1.75Q213.23-1.75 213.75-2.23 214.28-2.7 214.35-3.5 214.43-4.3 214.43-5.15L214.43-5.15 214.43-29.55Q214.43-30.45 214.35-31.23 214.28-32 213.78-32.48 213.28-32.95 211.88-32.95L211.88-32.95Q211.43-32.95 211.05-33.08 210.68-33.2 210.68-33.95L210.68-33.95Q210.68-34.7 211.48-34.85L211.48-34.85Q213.78-35.2 215-35.55 216.23-35.9 216.88-36.18 217.53-36.45 218.03-36.45L218.03-36.45Q218.43-36.45 218.7-36.27 218.98-36.1 218.98-35.5L218.98-35.5 218.98-19.4 219.08-19.4Q220.08-20.35 221.13-21.23 222.18-22.1 223.6-22.68 225.03-23.25 227.13-23.25L227.13-23.25Q230.53-23.25 232.53-21.2 234.53-19.15 234.53-15.8L234.53-15.8 234.53-5.15Q234.53-4.3 234.6-3.5 234.68-2.7 235.2-2.23 235.73-1.75 237.08-1.75L237.08-1.75Q237.58-1.75 237.88-1.68 238.18-1.6 238.23-0.85L238.23-0.85Q238.23-0.5 238.05-0.18 237.88 0.15 237.48 0.15L237.48 0.15Q236.03 0.05 234.78 0.03 233.53 0 232.23 0L232.23 0Q230.88 0 229.68 0.03 228.48 0.05 227.03 0.15L227.03 0.15Q226.63 0.15 226.43-0.18 226.23-0.5 226.23-0.85L226.23-0.85Q226.28-1.6 226.58-1.68 226.88-1.75 227.38-1.75L227.38-1.75Q228.78-1.75 229.3-2.23 229.83-2.7 229.88-3.5 229.93-4.3 229.93-5.15L229.93-5.15 229.93-15.75Q229.93-18.25 228.43-19.38 226.93-20.5 225.18-20.5L225.18-20.5Q223.48-20.5 222.18-19.88 220.88-19.25 220.08-18.45 219.28-17.65 218.98-17.05L218.98-17.05 218.98-5.15Q218.98-4.3 219.05-3.5 219.13-2.7 219.65-2.23 220.18-1.75 221.53-1.75L221.53-1.75Q222.03-1.75 222.33-1.68 222.63-1.6 222.68-0.85L222.68-0.85Q222.68-0.5 222.5-0.18 222.33 0.15 221.93 0.15L221.93 0.15Q220.48 0.05 219.23 0.03 217.98 0 216.68 0L216.68 0Q215.33 0 214.13 0.03 212.93 0.05 211.48 0.15ZM241.18 0.15L241.18 0.15Q240.83 0.15 240.6-0.18 240.38-0.5 240.38-0.85L240.38-0.85Q240.48-1.6 240.78-1.68 241.08-1.75 241.58-1.75L241.58-1.75Q242.98-1.75 243.48-2.23 243.98-2.7 244.05-3.5 244.13-4.3 244.13-5.15L244.13-5.15 244.13-16.6Q244.13-17.5 244.05-18.28 243.98-19.05 243.48-19.53 242.98-20 241.58-20L241.58-20Q241.13-20 240.75-20.13 240.38-20.25 240.38-21L240.38-21Q240.38-21.75 241.18-21.9L241.18-21.9Q243.48-22.25 244.7-22.6 245.93-22.95 246.55-23.2 247.18-23.45 247.68-23.5L247.68-23.5Q248.08-23.55 248.35-23.35 248.63-23.15 248.63-22.55L248.63-22.55 248.63-19.4 248.78-19.4Q249.78-20.35 250.83-21.23 251.88-22.1 253.3-22.68 254.73-23.25 256.83-23.25L256.83-23.25Q260.23-23.25 262.23-21.2 264.23-19.15 264.23-15.8L264.23-15.8 264.23-5.15Q264.23-4.3 264.3-3.5 264.38-2.7 264.9-2.23 265.43-1.75 266.83-1.75L266.83-1.75Q267.28-1.75 267.6-1.68 267.93-1.6 267.98-0.85L267.98-0.85Q267.98-0.5 267.78-0.18 267.58 0.15 267.18 0.15L267.18 0.15Q265.73 0.05 264.5 0.03 263.28 0 261.93 0L261.93 0Q260.58 0 259.38 0.03 258.18 0.05 256.73 0.15L256.73 0.15Q256.38 0.15 256.15-0.18 255.93-0.5 255.93-0.85L255.93-0.85Q255.98-1.6 256.3-1.68 256.63-1.75 257.08-1.75L257.08-1.75Q258.48-1.75 259-2.23 259.53-2.7 259.6-3.5 259.68-4.3 259.68-5.15L259.68-5.15 259.68-15.75Q259.68-17.4 258.95-18.45 258.23-19.5 257.13-20 256.03-20.5 254.88-20.5L254.88-20.5Q253.18-20.5 251.88-19.88 250.58-19.25 249.78-18.45 248.98-17.65 248.68-17.05L248.68-17.05 248.68-5.15Q248.68-4.3 248.75-3.5 248.83-2.7 249.35-2.23 249.88-1.75 251.28-1.75L251.28-1.75Q251.73-1.75 252.05-1.68 252.38-1.6 252.43-0.85L252.43-0.85Q252.43-0.5 252.23-0.18 252.03 0.15 251.63 0.15L251.63 0.15Q250.18 0.05 248.95 0.03 247.73 0 246.38 0L246.38 0Q245.03 0 243.83 0.03 242.63 0.05 241.18 0.15ZM271.12 0.15L271.12 0.15Q270.77 0.15 270.55-0.18 270.32-0.5 270.32-0.85L270.32-0.85Q270.42-1.6 270.72-1.68 271.02-1.75 271.52-1.75L271.52-1.75Q272.92-1.75 273.42-2.23 273.92-2.7 274-3.5 274.07-4.3 274.07-5.15L274.07-5.15 274.07-16.6Q274.07-17.5 274-18.28 273.92-19.05 273.42-19.53 272.92-20 271.52-20L271.52-20Q271.07-20 270.7-20.13 270.32-20.25 270.32-21L270.32-21Q270.32-21.75 271.12-21.9L271.12-21.9Q273.42-22.25 274.65-22.6 275.87-22.95 276.52-23.2 277.17-23.45 277.67-23.5L277.67-23.5Q278.07-23.55 278.35-23.35 278.62-23.15 278.62-22.55L278.62-22.55 278.62-5.15Q278.62-4.3 278.7-3.5 278.77-2.7 279.3-2.23 279.82-1.75 281.22-1.75L281.22-1.75Q281.67-1.75 282-1.68 282.32-1.6 282.37-0.85L282.37-0.85Q282.37-0.5 282.17-0.18 281.97 0.15 281.57 0.15L281.57 0.15Q280.12 0.05 278.9 0.03 277.67 0 276.32 0L276.32 0Q274.97 0 273.77 0.03 272.57 0.05 271.12 0.15ZM276.07-29.05L276.07-29.05Q274.67-29.05 273.72-29.93 272.77-30.8 272.77-32.1L272.77-32.1Q272.77-33.25 273.92-34.15 275.07-35.05 276.52-35.05L276.52-35.05Q277.77-35.05 278.57-34.18 279.37-33.3 279.37-31.95L279.37-31.95Q279.37-30.75 278.42-29.9 277.47-29.05 276.07-29.05ZM296.07 0.6L296.07 0.6Q290.92 0.6 288.05-2.68 285.17-5.95 285.17-11.35L285.17-11.35Q285.32-14.8 286.89-17.45 288.47-20.1 291.1-21.63 293.72-23.15 296.92-23.25L296.92-23.25Q298.67-23.25 300.5-22.83 302.32-22.4 303.55-21.28 304.77-20.15 304.77-18.05L304.77-18.05Q304.77-16.6 303.87-15.38 302.97-14.15 301.37-14.15L301.37-14.15Q300.27-14.15 299.67-14.7 299.07-15.25 299.07-15.5L299.07-15.5Q299.07-15.6 299.5-15.93 299.92-16.25 300.32-16.82 300.72-17.4 300.72-18.25L300.72-18.25Q300.72-19.85 299.57-20.6 298.42-21.35 296.97-21.4L296.97-21.4Q294.77-21.4 293.44-20.5 292.12-19.6 291.42-18.13 290.72-16.65 290.5-14.9 290.27-13.15 290.27-11.5L290.27-11.5Q290.27-8.75 291.12-6.58 291.97-4.4 293.52-3.15 295.07-1.9 297.22-1.9L297.22-1.9Q299.42-1.9 300.92-2.85 302.42-3.8 303.67-5.65L303.67-5.65Q304.02-6.15 304.72-5.75L304.72-5.75Q305.07-5.55 305.22-5.2 305.37-4.85 305.12-4.5L305.12-4.5Q303.47-2.15 301.02-0.78 298.57 0.6 296.07 0.6ZM315.27 0.6L315.27 0.6Q312.22 0.6 310.39-1.15 308.57-2.9 308.57-5.35L308.57-5.35Q308.57-7.9 309.89-9.35 311.22-10.8 313.39-11.5 315.57-12.2 318.14-12.45 320.72-12.7 323.17-12.85L323.17-12.85 323.17-16.8Q323.17-19.15 321.99-20.48 320.82-21.8 318.02-21.8L318.02-21.8Q316.62-21.8 315.39-20.9 314.17-20 314.17-18.3L314.17-18.3Q314.17-17.5 314.57-16.95 314.97-16.4 315.37-16.1 315.77-15.8 315.77-15.7L315.77-15.7Q315.77-15.5 315.19-14.98 314.62-14.45 313.62-14.45L313.62-14.45Q312.07-14.45 311.22-15.6 310.37-16.75 310.37-18.15L310.37-18.15Q310.37-20.05 311.54-21.15 312.72-22.25 314.57-22.75 316.42-23.25 318.32-23.25L318.32-23.25Q320.57-23.25 322.69-22.7 324.82-22.15 326.19-20.6 327.57-19.05 327.57-15.95L327.57-15.95 327.57-4.3Q327.62-3.8 327.82-3.1 328.02-2.4 328.59-1.88 329.17-1.35 330.17-1.35L330.17-1.35Q330.52-1.35 330.72-1.23 330.92-1.1 330.92-0.55L330.92-0.55Q330.92-0.1 330.42 0.15 329.92 0.4 329.27 0.5 328.62 0.6 328.17 0.6L328.17 0.6Q326.32 0.6 324.87-0.48 323.42-1.55 323.17-3.45L323.17-3.45Q322.07-1.45 319.89-0.43 317.72 0.6 315.27 0.6ZM316.87-2.1L316.87-2.1Q318.57-2.1 319.99-2.95 321.42-3.8 322.29-5.28 323.17-6.75 323.17-8.55L323.17-8.55 323.17-11.4Q318.02-11.05 315.82-9.75 313.62-8.45 313.62-5.5L313.62-5.5Q313.62-2.1 316.87-2.1ZM333.87 0.15L333.87 0.15Q333.52 0.15 333.29-0.18 333.06-0.5 333.06-0.85L333.06-0.85Q333.12-1.6 333.44-1.68 333.77-1.75 334.22-1.75L334.22-1.75Q335.62-1.75 336.14-2.23 336.67-2.7 336.74-3.5 336.81-4.3 336.81-5.15L336.81-5.15 336.81-29.55Q336.81-30.45 336.74-31.23 336.67-32 336.17-32.48 335.67-32.95 334.27-32.95L334.27-32.95Q333.81-32.95 333.44-33.08 333.06-33.2 333.06-33.95L333.06-33.95Q333.06-34.7 333.87-34.85L333.87-34.85Q336.17-35.2 337.39-35.55 338.62-35.9 339.27-36.15 339.92-36.4 340.42-36.45L340.42-36.45Q340.81-36.5 341.09-36.3 341.37-36.1 341.37-35.5L341.37-35.5 341.37-5.15Q341.37-4.3 341.44-3.5 341.52-2.7 342.04-2.23 342.56-1.75 343.97-1.75L343.97-1.75Q344.42-1.75 344.74-1.68 345.06-1.6 345.12-0.85L345.12-0.85Q345.12-0.5 344.92-0.18 344.72 0.15 344.31 0.15L344.31 0.15Q342.87 0.05 341.64 0.03 340.42 0 339.06 0L339.06 0Q337.72 0 336.52 0.03 335.31 0.05 333.87 0.15ZM370.61 1L370.61 1Q365.41 1 362.61-0.83 359.81-2.65 359.81-6.2L359.81-6.2Q359.81-8 361.04-9.18 362.26-10.35 364.21-10.35L364.21-10.35Q365.51-10.3 366.04-9.7 366.56-9.1 366.56-8.8L366.56-8.8Q366.56-8.7 366.11-8.47 365.66-8.25 365.21-7.68 364.76-7.1 364.76-5.9L364.76-5.9Q364.76-3.65 366.16-2.33 367.56-1 370.61-1L370.61-1Q372.76-1 374.29-1.83 375.81-2.65 376.61-3.98 377.41-5.3 377.41-6.7L377.41-6.7Q377.41-8.8 376.21-10.15 375.01-11.5 373.09-12.48 371.16-13.45 369.01-14.35 366.86-15.25 364.94-16.4 363.01-17.55 361.76-19.28 360.51-21 360.46-23.6L360.46-23.6Q360.41-26.75 361.81-28.73 363.21-30.7 365.71-31.63 368.21-32.55 371.26-32.55L371.26-32.55Q373.51-32.55 375.69-31.9 377.86-31.25 379.29-29.88 380.71-28.5 380.71-26.25L380.71-26.25Q380.71-24.45 379.49-23.28 378.26-22.1 376.31-22.1L376.31-22.1Q375.01-22.2 374.49-22.78 373.96-23.35 373.96-23.65L373.96-23.65Q373.96-23.8 374.56-24.03 375.16-24.25 375.76-24.83 376.36-25.4 376.36-26.55L376.36-26.55Q376.36-28.45 374.91-29.48 373.46-30.5 371.31-30.5L371.31-30.5Q368.06-30.5 366.59-28.98 365.11-27.45 365.11-25.55L365.11-25.55Q365.11-23.7 366.11-22.55 367.11-21.4 369.11-20.3L369.11-20.3Q371.36-19.1 373.66-18.07 375.96-17.05 377.94-15.8 379.91-14.55 381.11-12.68 382.31-10.8 382.31-7.85L382.31-7.85Q382.31-5.3 380.74-3.3 379.16-1.3 376.51-0.15 373.86 1 370.61 1ZM398.36 0.6L398.36 0.6Q394.51 0.6 391.88-1.05 389.26-2.7 387.96-5.45 386.66-8.2 386.66-11.45L386.66-11.45Q386.66-13.65 387.43-15.73 388.21-17.8 389.66-19.53 391.11-21.25 393.16-22.25 395.21-23.25 397.81-23.25L397.81-23.25Q402.41-23.25 404.73-20.88 407.06-18.5 407.41-14.85L407.41-14.85Q407.41-13.1 406.43-12.55 405.46-12 403.91-12L403.91-12 391.76-12Q391.76-9.1 392.56-6.83 393.36-4.55 395.08-3.23 396.81-1.9 399.66-1.9L399.66-1.9Q401.76-1.9 403.26-2.8 404.76-3.7 406.16-5.95L406.16-5.95Q406.56-6.45 407.26-6L407.26-6Q407.66-5.8 407.76-5.38 407.86-4.95 407.66-4.65L407.66-4.65Q406.11-2.2 403.76-0.8 401.41 0.6 398.36 0.6ZM391.76-13.9L391.76-13.9 399.91-13.9Q401.11-13.9 401.83-14.38 402.56-14.85 402.61-16L402.61-16Q402.61-18.15 401.43-19.83 400.26-21.5 397.81-21.5L397.81-21.5Q395.31-21.5 393.63-19.5 391.96-17.5 391.76-13.9ZM412.16 0.15L412.16 0.15Q411.81 0.15 411.58-0.18 411.36-0.5 411.36-0.85L411.36-0.85Q411.46-1.6 411.76-1.68 412.06-1.75 412.56-1.75L412.56-1.75Q413.96-1.75 414.46-2.23 414.96-2.7 415.03-3.5 415.11-4.3 415.11-5.15L415.11-5.15 415.11-16.6Q415.11-17.5 415.03-18.28 414.96-19.05 414.46-19.53 413.96-20 412.56-20L412.56-20Q412.11-20 411.73-20.13 411.36-20.25 411.36-21L411.36-21Q411.36-21.75 412.16-21.9L412.16-21.9Q414.46-22.25 415.68-22.6 416.91-22.95 417.53-23.2 418.16-23.45 418.66-23.5L418.66-23.5Q419.06-23.55 419.33-23.35 419.61-23.15 419.61-22.55L419.61-22.55 419.61-19.45 419.76-19.45Q421.46-21.1 423.26-22.18 425.06-23.25 426.56-23.25L426.56-23.25Q428.31-23.25 429.23-21.95 430.16-20.65 430.16-19.2L430.16-19.2Q430.16-17.95 429.36-16.78 428.56-15.6 426.96-15.6L426.96-15.6Q426.16-15.6 425.68-15.93 425.21-16.25 425.16-16.4L425.16-16.4Q425.16-16.5 425.63-17 426.11-17.5 426.11-18.25L426.11-18.25Q426.11-19.15 425.63-19.7 425.16-20.25 424.36-20.25L424.36-20.25Q423.51-20.25 422.18-19.4 420.86-18.55 419.66-17.35L419.66-17.35 419.66-5.15Q419.66-4.3 419.73-3.5 419.81-2.7 420.33-2.23 420.86-1.75 422.26-1.75L422.26-1.75Q422.71-1.75 423.03-1.68 423.36-1.6 423.41-0.85L423.41-0.85Q423.41-0.5 423.21-0.18 423.01 0.15 422.61 0.15L422.61 0.15Q421.16 0.05 419.93 0.03 418.71 0 417.36 0L417.36 0Q416.01 0 414.81 0.03 413.61 0.05 412.16 0.15ZM445.6 0.5L443.5 0.5Q442.25-2.25 441-5.5 439.75-8.75 438.55-11.85 437.35-14.95 436.25-17.25L436.25-17.25Q435.45-19.1 434.7-19.88 433.95-20.65 432.45-20.85L432.45-20.85Q431.8-20.95 431.58-21.05 431.35-21.15 431.3-21.8L431.3-21.8Q431.25-22.65 431.78-22.73 432.3-22.8 433.05-22.85L433.05-22.85Q436.15-23 437.9-21.95 439.65-20.9 440.75-18.4L440.75-18.4Q441.45-16.85 442.33-14.55 443.2-12.25 444.15-9.9 445.1-7.55 446-5.65L446-5.65 446.15-5.65 451.1-18.75Q451.6-20.2 451.15-20.55 450.7-20.9 449.2-20.9L449.2-20.9Q448.75-20.9 448.45-20.98 448.15-21.05 448.1-21.8L448.1-21.8Q448.1-22.1 448.28-22.45 448.45-22.8 448.8-22.8L448.8-22.8Q450.25-22.75 451.3-22.7 452.35-22.65 453.65-22.65L453.65-22.65Q454.55-22.65 455.1-22.68 455.65-22.7 456.25-22.73 456.85-22.75 457.8-22.8L457.8-22.8Q458.2-22.8 458.38-22.45 458.55-22.1 458.55-21.8L458.55-21.8Q458.5-21.05 458.18-20.98 457.85-20.9 457.45-20.9L457.45-20.9Q455.8-20.9 454.83-20.3 453.85-19.7 453.15-17.95L453.15-17.95Q453.15-17.95 452.63-16.63 452.1-15.3 451.25-13.2 450.4-11.1 449.45-8.75 448.5-6.4 447.63-4.3 446.75-2.2 446.2-0.85 445.65 0.5 445.6 0.5L445.6 0.5ZM460.95 0.15L460.95 0.15Q460.6 0.15 460.38-0.18 460.15-0.5 460.15-0.85L460.15-0.85Q460.25-1.6 460.55-1.68 460.85-1.75 461.35-1.75L461.35-1.75Q462.75-1.75 463.25-2.23 463.75-2.7 463.83-3.5 463.9-4.3 463.9-5.15L463.9-5.15 463.9-16.6Q463.9-17.5 463.83-18.28 463.75-19.05 463.25-19.53 462.75-20 461.35-20L461.35-20Q460.9-20 460.53-20.13 460.15-20.25 460.15-21L460.15-21Q460.15-21.75 460.95-21.9L460.95-21.9Q463.25-22.25 464.48-22.6 465.7-22.95 466.35-23.2 467-23.45 467.5-23.5L467.5-23.5Q467.9-23.55 468.18-23.35 468.45-23.15 468.45-22.55L468.45-22.55 468.45-5.15Q468.45-4.3 468.53-3.5 468.6-2.7 469.13-2.23 469.65-1.75 471.05-1.75L471.05-1.75Q471.5-1.75 471.83-1.68 472.15-1.6 472.2-0.85L472.2-0.85Q472.2-0.5 472-0.18 471.8 0.15 471.4 0.15L471.4 0.15Q469.95 0.05 468.73 0.03 467.5 0 466.15 0L466.15 0Q464.8 0 463.6 0.03 462.4 0.05 460.95 0.15ZM465.9-29.05L465.9-29.05Q464.5-29.05 463.55-29.93 462.6-30.8 462.6-32.1L462.6-32.1Q462.6-33.25 463.75-34.15 464.9-35.05 466.35-35.05L466.35-35.05Q467.6-35.05 468.4-34.18 469.2-33.3 469.2-31.95L469.2-31.95Q469.2-30.75 468.25-29.9 467.3-29.05 465.9-29.05ZM485.9 0.6L485.9 0.6Q480.75 0.6 477.87-2.68 475-5.95 475-11.35L475-11.35Q475.15-14.8 476.72-17.45 478.3-20.1 480.92-21.63 483.55-23.15 486.75-23.25L486.75-23.25Q488.5-23.25 490.32-22.83 492.15-22.4 493.37-21.28 494.6-20.15 494.6-18.05L494.6-18.05Q494.6-16.6 493.7-15.38 492.8-14.15 491.2-14.15L491.2-14.15Q490.1-14.15 489.5-14.7 488.9-15.25 488.9-15.5L488.9-15.5Q488.9-15.6 489.32-15.93 489.75-16.25 490.15-16.82 490.55-17.4 490.55-18.25L490.55-18.25Q490.55-19.85 489.4-20.6 488.25-21.35 486.8-21.4L486.8-21.4Q484.6-21.4 483.27-20.5 481.95-19.6 481.25-18.13 480.55-16.65 480.32-14.9 480.1-13.15 480.1-11.5L480.1-11.5Q480.1-8.75 480.95-6.58 481.8-4.4 483.35-3.15 484.9-1.9 487.05-1.9L487.05-1.9Q489.25-1.9 490.75-2.85 492.25-3.8 493.5-5.65L493.5-5.65Q493.85-6.15 494.55-5.75L494.55-5.75Q494.9-5.55 495.05-5.2 495.2-4.85 494.95-4.5L494.95-4.5Q493.3-2.15 490.85-0.78 488.4 0.6 485.9 0.6ZM510.45 0.6L510.45 0.6Q506.6 0.6 503.97-1.05 501.35-2.7 500.05-5.45 498.75-8.2 498.75-11.45L498.75-11.45Q498.75-13.65 499.52-15.73 500.3-17.8 501.75-19.53 503.2-21.25 505.25-22.25 507.3-23.25 509.9-23.25L509.9-23.25Q514.5-23.25 516.82-20.88 519.15-18.5 519.5-14.85L519.5-14.85Q519.5-13.1 518.52-12.55 517.55-12 516-12L516-12 503.85-12Q503.85-9.1 504.65-6.83 505.45-4.55 507.17-3.23 508.9-1.9 511.75-1.9L511.75-1.9Q513.85-1.9 515.35-2.8 516.85-3.7 518.25-5.95L518.25-5.95Q518.65-6.45 519.35-6L519.35-6Q519.75-5.8 519.85-5.38 519.95-4.95 519.75-4.65L519.75-4.65Q518.2-2.2 515.85-0.8 513.5 0.6 510.45 0.6ZM503.85-13.9L503.85-13.9 512-13.9Q513.2-13.9 513.92-14.38 514.65-14.85 514.7-16L514.7-16Q514.7-18.15 513.52-19.83 512.35-21.5 509.9-21.5L509.9-21.5Q507.4-21.5 505.72-19.5 504.05-17.5 503.85-13.9ZM532.69 0.6L532.69 0.6Q528.84 0.6 526.27-0.78 523.69-2.15 523.69-4.75L523.69-4.75Q523.69-6.2 524.57-7.1 525.44-8 526.84-8L526.84-8Q527.74-8 528.32-7.53 528.89-7.05 528.89-6.85L528.89-6.85Q528.89-6.7 528.32-6.18 527.74-5.65 527.74-4.5L527.74-4.5Q527.74-3.1 529.07-2.18 530.39-1.25 533.09-1.25L533.09-1.25Q535.44-1.25 536.77-2.27 538.09-3.3 538.09-5.15L538.09-5.15Q538.09-6.65 537.12-7.48 536.14-8.3 534.62-8.8 533.09-9.3 531.37-9.8 529.64-10.3 528.09-11.05 526.54-11.8 525.57-13.13 524.59-14.45 524.59-16.65L524.59-16.65Q524.59-18.9 525.94-20.35 527.29-21.8 529.39-22.53 531.49-23.25 533.64-23.25L533.64-23.25Q535.49-23.25 537.14-22.73 538.79-22.2 539.87-21.15 540.94-20.1 540.94-18.5L540.94-18.5Q540.94-17.25 540.14-16.25 539.34-15.25 537.94-15.25L537.94-15.25Q537.04-15.25 536.47-15.73 535.89-16.2 535.89-16.4L535.89-16.4Q535.89-16.5 536.27-16.78 536.64-17.05 536.99-17.53 537.34-18 537.34-18.75L537.34-18.75Q537.24-20.2 535.94-20.9 534.64-21.6 533.04-21.6L533.04-21.6Q531.29-21.6 529.79-20.75 528.29-19.9 528.29-18.3L528.29-18.3Q528.29-16.85 528.92-16.05 529.54-15.25 530.92-14.68 532.29-14.1 534.49-13.4L534.49-13.4Q536.69-12.7 538.37-11.95 540.04-11.2 540.97-9.98 541.89-8.75 541.89-6.65L541.89-6.65Q541.89-4.55 540.69-2.9 539.49-1.25 537.42-0.33 535.34 0.6 532.69 0.6Z" opacity="1" transform="matrix(1,0,0,1,0,0)" fill="#000000" class="wordmark-text-0" data-fill-palette-color="primary" id="text-0"></path></svg></g></svg></g><g transform="matrix(1,0,0,1,115.65362583820615,33.92409654685413)"><svg viewBox="0 0 164.21274832358768 16.961005363712147" height="16.961005363712147" width="164.21274832358768"><g transform="matrix(1,0,0,1,8,0)"><svg width="148.21274832358768" viewBox="3.85 -37.35 330.71999999999997 37.85" height="16.961005363712147" data-palette-color="#fca26e"><path d="M3.85 0L3.85-36.75 21.1-36.75 21.1-31.9 9.4-31.9 9.4-21.5 18.5-21.5 18.5-16.6 9.4-16.6 9.4 0 3.85 0ZM34.55 0.5Q31.45 0.5 28.82-0.98 26.2-2.45 24.62-5.18 23.05-7.9 23.05-11.55L23.05-11.55Q23.05-15.15 24.42-17.85 25.8-20.55 28.35-22.05 30.9-23.55 34.35-23.55L34.35-23.55Q36.35-23.55 38.1-22.85 39.85-22.15 41.05-21.13 42.25-20.1 42.65-19.1L42.65-19.1 42.75-22.95 47.9-22.95 47.9 0 42.8 0 42.7-4.05Q41.85-2.25 39.6-0.88 37.35 0.5 34.55 0.5L34.55 0.5ZM35.45-4Q38.3-4 40.25-5.98 42.2-7.95 42.2-11.15L42.2-11.15 42.2-11.5Q42.2-13.65 41.3-15.35 40.4-17.05 38.85-18 37.3-18.95 35.45-18.95L35.45-18.95Q32.25-18.95 30.5-16.88 28.75-14.8 28.75-11.5L28.75-11.5Q28.75-8.15 30.47-6.08 32.2-4 35.45-4L35.45-4ZM63.05 0.5Q60.64 0.5 58.07-0.13 55.49-0.75 54.39-1.6L54.39-1.6 56.2-5.85Q59.2-3.75 63.05-3.75L63.05-3.75Q66.89-3.75 66.89-6L66.89-6Q66.89-7 66.09-7.55 65.3-8.1 63.24-8.85L63.24-8.85 61.34-9.55Q58.34-10.75 56.59-12.43 54.84-14.1 54.84-16.85L54.84-16.85Q54.84-20 57.32-21.78 59.8-23.55 63.95-23.55L63.95-23.55Q66-23.55 67.97-23.1 69.94-22.65 71-21.95L71-21.95 69.05-17.65Q68.39-18.3 66.97-18.78 65.55-19.25 63.8-19.25L63.8-19.25Q60.24-19.25 60.24-17.1L60.24-17.1Q60.24-15.9 61.2-15.28 62.14-14.65 64.3-13.9L64.3-13.9Q64.5-13.85 65.84-13.35L65.84-13.35Q69.05-12.1 70.59-10.5 72.14-8.9 72.14-6.4L72.14-6.4Q72.14-3 69.57-1.25 67 0.5 63.05 0.5L63.05 0.5ZM79.74 0L79.74-18.55 75.69-18.55 75.69-22.95 79.74-22.95 79.74-32.3 85.19-33.5 85.19-22.95 90.49-22.95 90.49-18.55 85.19-18.55 85.19 0 79.74 0ZM117.29 0.5Q114.19 0.5 111.56-0.98 108.94-2.45 107.36-5.18 105.79-7.9 105.79-11.55L105.79-11.55Q105.79-15.15 107.16-17.85 108.54-20.55 111.09-22.05 113.64-23.55 117.09-23.55L117.09-23.55Q119.09-23.55 120.84-22.85 122.59-22.15 123.79-21.13 124.99-20.1 125.39-19.1L125.39-19.1 125.49-22.95 130.64-22.95 130.64 0 125.54 0 125.44-4.05Q124.59-2.25 122.34-0.88 120.09 0.5 117.29 0.5L117.29 0.5ZM118.19-4Q121.04-4 122.99-5.98 124.94-7.95 124.94-11.15L124.94-11.15 124.94-11.5Q124.94-13.65 124.04-15.35 123.14-17.05 121.59-18 120.04-18.95 118.19-18.95L118.19-18.95Q114.99-18.95 113.24-16.88 111.49-14.8 111.49-11.5L111.49-11.5Q111.49-8.15 113.21-6.08 114.94-4 118.19-4L118.19-4ZM137.89 0L137.89-22.95 143.19-22.95 143.24-18.75Q144.19-20.85 146.24-22.2 148.28-23.55 151.03-23.55L151.03-23.55Q154.59-23.55 156.49-22.08 158.39-20.6 159.04-17.95 159.69-15.3 159.69-11.05L159.69-11.05 159.69 0 154.29 0 154.29-10.9Q154.29-15.25 153.44-17.18 152.59-19.1 149.94-19.1L149.94-19.1Q148.44-19.1 146.89-18.18 145.34-17.25 144.31-15.5 143.28-13.75 143.28-11.4L143.28-11.4 143.28 0 137.89 0ZM176.78 0.5Q173.68 0.5 171.06-0.98 168.43-2.45 166.86-5.18 165.28-7.9 165.28-11.55L165.28-11.55Q165.28-17 168.33-20.28 171.38-23.55 176.58-23.55L176.58-23.55Q179.48-23.55 181.88-22.13 184.28-20.7 185.13-18.7L185.13-18.7 184.88-22.6 184.88-36.75 190.18-36.75 190.18 0 185.03 0 184.93-4.05Q184.08-2.25 181.83-0.88 179.58 0.5 176.78 0.5L176.78 0.5ZM177.68-4.05Q180.53-4.05 182.48-6.03 184.43-8 184.43-11.2L184.43-11.2 184.43-11.55Q184.43-13.7 183.53-15.4 182.63-17.1 181.08-18.05 179.53-19 177.68-19L177.68-19Q174.48-19 172.73-16.93 170.98-14.85 170.98-11.55L170.98-11.55Q170.98-8.2 172.71-6.13 174.43-4.05 177.68-4.05L177.68-4.05ZM226.63 0.35Q220.93 0.35 216.75-2.2 212.58-4.75 210.38-9.03 208.18-13.3 208.18-18.45L208.18-18.45Q208.18-23.9 210.55-28.2 212.93-32.5 217.23-34.93 221.53-37.35 226.98-37.35L226.98-37.35Q229.43-37.35 231.55-36.83 233.68-36.3 235.08-35.63 236.48-34.95 236.93-34.5L236.93-34.5 234.48-29.5Q231.43-32.2 226.53-32.2L226.53-32.2Q223.08-32.2 220.28-30.5 217.48-28.8 215.88-25.65 214.28-22.5 214.28-18.35L214.28-18.35Q214.28-14.55 215.7-11.45 217.13-8.35 219.88-6.55 222.63-4.75 226.43-4.75L226.43-4.75Q230.83-4.75 234.93-7.25L234.93-7.25 236.58-2.5Q235.48-1.5 232.55-0.58 229.63 0.35 226.63 0.35L226.63 0.35ZM242.48 0L242.48-36.75 247.83-36.75 247.83 0 242.48 0ZM266.27 0.5Q262.17 0.5 259.42-1.13 256.67-2.75 255.37-5.48 254.07-8.2 254.07-11.45L254.07-11.45Q254.07-15.1 255.6-17.85 257.12-20.6 259.82-22.08 262.52-23.55 265.92-23.55L265.92-23.55Q271.22-23.55 273.8-20.63 276.37-17.7 276.37-12.4L276.37-12.4Q276.37-11.05 276.22-9.6L276.22-9.6 259.72-9.6Q260.27-6.55 261.9-5.2 263.52-3.85 266.42-3.85L266.42-3.85Q268.82-3.85 270.37-4.25 271.92-4.65 273.22-5.35L273.22-5.35 274.87-1.5Q273.62-0.7 271.47-0.1 269.32 0.5 266.27 0.5L266.27 0.5ZM259.72-13.35L271.12-13.35Q271.17-16.45 269.77-17.73 268.37-19 265.77-19L265.77-19Q260.52-19 259.72-13.35L259.72-13.35ZM292.17 0.5Q289.07 0.5 286.45-0.98 283.82-2.45 282.25-5.18 280.67-7.9 280.67-11.55L280.67-11.55Q280.67-15.15 282.05-17.85 283.42-20.55 285.97-22.05 288.52-23.55 291.97-23.55L291.97-23.55Q293.97-23.55 295.72-22.85 297.47-22.15 298.67-21.13 299.87-20.1 300.27-19.1L300.27-19.1 300.37-22.95 305.52-22.95 305.52 0 300.42 0 300.32-4.05Q299.47-2.25 297.22-0.88 294.97 0.5 292.17 0.5L292.17 0.5ZM293.07-4Q295.92-4 297.87-5.98 299.82-7.95 299.82-11.15L299.82-11.15 299.82-11.5Q299.82-13.65 298.92-15.35 298.02-17.05 296.47-18 294.92-18.95 293.07-18.95L293.07-18.95Q289.87-18.95 288.12-16.88 286.37-14.8 286.37-11.5L286.37-11.5Q286.37-8.15 288.1-6.08 289.82-4 293.07-4L293.07-4ZM312.77 0L312.77-22.95 318.07-22.95 318.12-18.75Q319.07-20.85 321.12-22.2 323.17-23.55 325.92-23.55L325.92-23.55Q329.47-23.55 331.37-22.08 333.27-20.6 333.92-17.95 334.57-15.3 334.57-11.05L334.57-11.05 334.57 0 329.17 0 329.17-10.9Q329.17-15.25 328.32-17.18 327.47-19.1 324.82-19.1L324.82-19.1Q323.32-19.1 321.77-18.18 320.22-17.25 319.19-15.5 318.17-13.75 318.17-11.4L318.17-11.4 318.17 0 312.77 0Z" opacity="1" transform="matrix(1,0,0,1,0,0)" fill="#000000" class="slogan-text-1" data-fill-palette-color="secondary" id="text-1"></path></svg></g></svg></g></svg></g></svg></g><g transform="matrix(1,0,0,1,137.23892673592863,0)"><svg viewBox="0 0 121.04214652814271 121.04214652814271" height="121.04214652814271" width="121.04214652814271"><g><svg></svg></g><g id="icon-0"><svg viewBox="0 0 121.04214652814271 121.04214652814271" height="121.04214652814271" width="121.04214652814271"><g><path d="M0 60.521c0-33.425 27.096-60.521 60.521-60.521 33.425 0 60.521 27.096 60.521 60.521 0 33.425-27.096 60.521-60.521 60.521-33.425 0-60.521-27.096-60.521-60.521zM60.521 118.567c32.058 0 58.046-25.988 58.046-58.046 0-32.058-25.988-58.046-58.046-58.046-32.058 0-58.046 25.988-58.046 58.046 0 32.058 25.988 58.046 58.046 58.046z" data-fill-palette-color="tertiary" fill="#000000" stroke="transparent"></path></g><g transform="matrix(1,0,0,1,35.99251040989489,28.118267396135764)"><svg viewBox="0 0 49.05712570835293 64.80561173587118" height="64.80561173587118" width="49.05712570835293"><g><svg xmlns="http://www.w3.org/2000/svg" xmlns:xlink="http://www.w3.org/1999/xlink" version="1.1" x="0" y="0" viewBox="15.935 4.999995755939626 68.12899999999999 90.00000424406038" enable-background="new 0 0 100 100" xml:space="preserve" height="64.80561173587118" width="49.05712570835293" class="icon-dxe-0" data-fill-palette-color="accent" id="dxe-0"><path d="M50 49.353C42.498 49.353 36.299 41.221 35.303 30.663H33.263C34.396 42.687 41.456 51.951 50 51.951S65.604 42.686 66.737 30.662H64.698C63.701 41.22 57.502 49.353 50 49.353" fill="#000000" data-fill-palette-color="accent"></path><path d="M84.064 72.011C84.064 60.657 75.648 51.267 64.711 49.745 64.673 49.74 64.633 49.737 64.593 49.73 64.28 49.69 63.966 49.652 63.649 49.623 63.648 49.656 63.638 49.688 63.638 49.72 63.633 49.813 63.617 49.902 63.606 49.997A4.6 4.6 0 0 1 63.145 51.525C61.493 55.685 56.148 63.568 53 68.041L52.352 58.745A5.45 5.45 0 0 0 54.569 56.588C54.933 55.937 55.156 55.227 55.156 54.503 55.156 54.503 52.807 55.544 50.411 55.544 50.274 55.544 50.138 55.538 50.001 55.531A8 8 0 0 1 49.591 55.544C47.194 55.544 44.846 54.503 44.846 54.503 44.846 55.227 45.069 55.937 45.433 56.588A5.43 5.43 0 0 0 47.65 58.745L47 68.041C43.852 63.568 38.507 55.685 36.855 51.525A4.5 4.5 0 0 1 36.393 49.997C36.382 49.902 36.366 49.812 36.361 49.72 36.36 49.689 36.351 49.656 36.351 49.623A26 26 0 0 0 35.406 49.73C35.366 49.737 35.326 49.74 35.288 49.745 24.351 51.266 15.935 60.656 15.935 72.011 15.935 79.915 20.017 82.774 26.184 83.81L26.179 81.025A3.64 3.64 0 0 1 27.251 78.457 3.64 3.64 0 0 1 29.808 77.391L32.738 77.388H33.513L33.96 77.69 34.158 77.824 34.409 77.995 44.403 77.974 44.614 77.973 45.109 77.971 45.534 78.228 45.711 78.333 47.078 79.155 61.956 79.165 61.971 79.159C61.68 78.77 61.105 78.586 61.028 78.561L60.473 78.417 59.157 78.075 59.153 76.715 59.151 76.123 59.149 74.603 59.148 73.915 59.143 72.319 60.731 72.156 61.418 72.085C61.531 72.073 61.947 72.036 62.559 72.036 64.417 72.036 67.903 72.383 70.36 74.705 73.289 77.472 73.722 79.712 73.785 80.333L73.788 80.377 73.789 80.385 73.797 80.501V80.581L73.803 83.81C79.976 82.778 84.064 79.922 84.064 72.011" fill="#000000" data-fill-palette-color="accent"></path><path d="M32.465 28.161H67.533A2.474 2.474 0 1 0 67.533 23.214H66.859C66.859 16.643 63.097 10.954 57.611 8.172L57.109 11.022 56.213 16.094A1.291 1.291 0 1 1 53.668 15.644L54.653 10.055 55.262 6.595A3.37 3.37 0 0 0 52.392 5H47.607A3.38 3.38 0 0 0 44.735 6.595L45.345 10.055 46.331 15.644A1.292 1.292 0 1 1 43.785 16.094L42.89 11.023 42.388 8.174C36.902 10.955 33.141 16.644 33.141 23.215H32.465A2.473 2.473 0 0 0 32.465 28.161" fill="#000000" data-fill-palette-color="accent"></path><path d="M72.046 90.276L71.284 90.28 70.429 90.285 70.428 89.711 71.955 86.818 72.042 86.649 72.041 86.462 72.03 80.584V80.547L72.027 80.511C72.006 80.306 71.752 78.448 69.147 75.989 67.116 74.069 64.091 73.801 62.556 73.801 62.006 73.801 61.647 73.835 61.595 73.84L60.91 73.911 60.912 74.599 60.914 76.12 60.916 76.708 61.486 76.856C61.508 76.861 63.903 77.505 63.903 79.64 63.905 79.772 63.878 79.974 63.637 80.212 63.237 80.613 62.518 80.849 62.2 80.927L46.586 80.917 44.799 79.843 44.618 79.735H44.407L33.865 79.756 33.163 79.28 32.969 79.148H32.735L29.807 79.152A1.885 1.885 0 0 0 27.941 81.035L27.953 87.447C27.953 87.949 28.148 88.417 28.504 88.772 28.855 89.122 29.322 89.317 29.819 89.317H29.832L32.755 89.31H32.987L33.179 89.178 33.882 88.701 44.424 88.678H44.637L44.818 88.567 46.599 87.485C48.353 87.48 60.467 87.426 62.291 87.422H62.299C64.081 87.422 64.608 89.228 64.763 90.293L64.135 90.297 63.377 90.303 63.381 91.06 63.384 93.456C63.384 93.867 63.544 94.253 63.835 94.545 64.13 94.84 64.52 95 64.932 95L70.515 94.988C70.925 94.988 71.312 94.827 71.601 94.538A1.53 1.53 0 0 0 72.055 93.438L72.048 91.038z" fill="#000000" data-fill-palette-color="accent"></path></svg></g></svg></g></svg></g></svg></g><g></g></svg></g><defs></defs></svg><rect width="395.52" height="184.88545653658505" fill="none" stroke="none" visibility="hidden"></rect></g></svg></g></svg>